<?xml version="1.0" standalone="no"?>
<!DOCTYPE svg PUBLIC "-//W3C//DTD SVG 1.1//EN" "http://www.w3.org/Graphics/SVG/1.1/DTD/svg11.dtd" >
<svg xmlns="http://www.w3.org/2000/svg" xmlns:xlink="http://www.w3.org/1999/xlink" version="1.1">
<metadata></metadata>
<defs>
<font id="overpassextrabold" horiz-adv-x="972" >
<font-face units-per-em="2048" ascent="1536" descent="-512" />
<missing-glyph horiz-adv-x="471" />
<glyph horiz-adv-x="0" />
<glyph horiz-adv-x="682" />
<glyph unicode=" "  horiz-adv-x="471" />
<glyph unicode="&#x09;" horiz-adv-x="471" />
<glyph unicode="&#xa0;" horiz-adv-x="471" />
<glyph unicode="!" horiz-adv-x="614" d="M129 150q0 74 50 125t126 51q75 0 127.5 -51.5t52.5 -124.5q0 -72 -52.5 -123.5t-127.5 -51.5q-76 0 -126 51t-50 124zM172 995v463h266v-463l-57 -600h-152z" />
<glyph unicode="&#x22;" horiz-adv-x="917" d="M92 1434h320l-50 -596h-221zM506 1434h319l-49 -596h-221z" />
<glyph unicode="#" horiz-adv-x="1433" d="M86 360l33 230h219l43 289h-217l33 229h221l47 326h233l-49 -326h248l51 326h232l-50 -326h218l-33 -229h-219l-43 -289h217l-35 -230h-217l-55 -360h-234l55 360h-247l-56 -360h-233l55 360h-217zM571 590h248l43 289h-248z" />
<glyph unicode="$" horiz-adv-x="1230" d="M102 365l252 92q43 -99 116 -159t161 -60q89 0 141.5 45.5t52.5 128.5q0 26 -8.5 49.5t-19 40.5t-34 35t-39.5 28.5t-51.5 26.5t-53.5 23.5t-60 23.5q-155 61 -221 104q-167 108 -177 300q-1 14 -1 28q0 135 84 238.5t235 134.5v164h269v-166q120 -31 196.5 -113.5 t110.5 -200.5l-248 -81q-27 67 -80 108t-131 41q-72 0 -113 -32.5t-41 -92.5q0 -23 7.5 -42.5t26.5 -36.5t36 -29.5t50.5 -27.5t55 -23.5t64.5 -24.5q43 -17 65 -25.5t64 -27.5t65.5 -33t59.5 -38.5t57 -47.5t46 -56t38 -68.5t22 -80.5t9 -96q0 -172 -100.5 -283.5 t-259.5 -142.5v-176h-269v182q-137 35 -233 130.5t-144 240.5z" />
<glyph unicode="%" horiz-adv-x="1728" d="M92 1083q0 51 11.5 101.5t38 100.5t65 88t99 61.5t134.5 23.5q73 0 133 -22.5t99.5 -59.5t66 -86t38 -101t11.5 -106q0 -51 -11 -101t-37 -100t-65 -88t-99.5 -61.5t-135.5 -23.5q-91 0 -161 33.5t-109 89t-58.5 119t-19.5 132.5zM244 -25l977 1483h264l-977 -1483h-264z M322 1083q0 -70 30 -111.5t88 -41.5t88.5 43.5t30.5 109.5q0 70 -30.5 112t-88.5 42t-88 -44t-30 -110zM940 350q0 51 11.5 101.5t38 100.5t65 88t99 61.5t134.5 23.5q91 0 161 -33.5t109 -89t58.5 -119.5t19.5 -133q0 -52 -11 -103t-37 -100.5t-65 -87t-99.5 -61 t-135.5 -23.5q-74 0 -134 22.5t-99 59t-65.5 85.5t-38 101t-11.5 107zM1169 350q0 -70 30 -111.5t89 -41.5q58 0 88.5 43.5t30.5 109.5q0 70 -30.5 112t-88.5 42t-88.5 -44t-30.5 -110z" />
<glyph unicode="&#x26;" horiz-adv-x="1472" d="M123 389q0 76 23.5 141t68 115.5t95.5 88.5t118 73q-74 87 -104.5 159t-30.5 156q0 159 102 247.5t262 88.5q157 0 257 -91t100 -241q0 -120 -60.5 -205t-167.5 -155l158 -188q17 73 17 139h262q0 -97 -25.5 -196.5t-67.5 -166.5l295 -354h-346l-110 137 q-162 -162 -410 -162q-198 0 -317 112.5t-119 301.5zM399 397q0 -75 50.5 -120.5t138.5 -45.5q121 0 229 93l-246 303q-88 -48 -130 -103.5t-42 -126.5zM543 1139q0 -86 102 -203q119 71 119 186q0 63 -33 97t-80 34q-48 0 -78 -30.5t-30 -83.5z" />
<glyph unicode="'" horiz-adv-x="503" d="M92 1434h320l-50 -596h-221z" />
<glyph unicode="(" horiz-adv-x="761" d="M143 580q0 276 79.5 507.5t193.5 370.5h264q-38 -47 -80 -125t-86.5 -189.5t-73 -261t-28.5 -302.5q0 -150 26.5 -295t68.5 -252.5t79 -179.5t71 -119h-264q-107 141 -178.5 356t-71.5 490z" />
<glyph unicode=")" horiz-adv-x="761" d="M82 1458h264q114 -138 193 -370t79 -508q0 -275 -71 -490.5t-178 -355.5h-265q35 50 71 120t78.5 178t69.5 252.5t27 295.5q0 153 -28.5 302.5t-73 261t-86.5 189.5t-80 125z" />
<glyph unicode="*" horiz-adv-x="1126" d="M102 1036l76 238l225 -74l68 -51l-33 82v244h250v-244l-33 -82l68 51l225 74l76 -238l-221 -73l-96 -2l79 -39l152 -205l-199 -144l-151 203l-25 96l-24 -96l-152 -203l-199 144l152 205l80 39l-96 2z" />
<glyph unicode="+" horiz-adv-x="1290" d="M164 573v258h348v353h266v-353h348v-258h-348v-352h-266v352h-348z" />
<glyph unicode="," horiz-adv-x="505" d="M72 -205q33 29 75 86.5t58 102.5q-53 18 -85 58.5t-32 100.5q0 74 51 122t121 48q75 0 124.5 -52t49.5 -144q0 -114 -73.5 -227.5t-176.5 -178.5z" />
<glyph unicode="-" horiz-adv-x="843" d="M154 477v256h536v-256h-536z" />
<glyph unicode="." horiz-adv-x="493" d="M74 143q0 71 49.5 120.5t122.5 49.5t123.5 -49.5t50.5 -120.5q0 -72 -50 -120t-124 -48t-123 48t-49 120z" />
<glyph unicode="/" horiz-adv-x="1069" d="M-31 -266l805 1724h275l-805 -1724h-275z" />
<glyph unicode="0" horiz-adv-x="1351" d="M147 717q0 113 15 214t53 199.5t96.5 169.5t152 114.5t212.5 43.5t212.5 -43.5t152 -114t96 -169t52.5 -199.5t15 -215q0 -112 -15 -213t-53 -199.5t-96 -170t-151.5 -115.5t-212.5 -44t-212.5 44t-152 115.5t-96.5 170t-53 199.5t-15 213zM424 717q0 -96 12.5 -177 t40 -151.5t78.5 -110.5t121 -40t121 40t78.5 110.5t40 151.5t12.5 177t-12.5 177t-40 151.5t-78.5 110.5t-121 40t-121 -40t-78.5 -110.5t-40 -151.5t-12.5 -177z" />
<glyph unicode="1" horiz-adv-x="841" d="M66 1061v219q109 0 177.5 35t96.5 119h221v-1434h-276v1061h-219z" />
<glyph unicode="2" horiz-adv-x="1253" d="M127 0q0 154 38.5 281t110 222t156.5 164t195 128q45 24 76.5 44.5t63.5 49.5t48 63.5t16 75.5q0 79 -50 123.5t-136 44.5q-172 0 -248 -162l-247 113q62 143 194 227t295 84q216 0 342.5 -120t126.5 -304q0 -89 -23 -158.5t-71.5 -124t-100 -92t-133.5 -84.5 q-149 -86 -222 -153t-103 -156h665v-266h-993z" />
<glyph unicode="3" horiz-adv-x="1228" d="M94 311l250 101q90 -174 264 -174q96 0 156.5 49t60.5 135q0 84 -55 137t-166 53h-139v265h139q78 0 125 43t47 116q0 70 -46.5 115t-129.5 45q-135 0 -209 -131l-250 96q64 138 183 217.5t280 79.5q197 0 323 -114t126 -283q0 -100 -46 -179.5t-128 -127.5 q97 -39 160 -126.5t63 -205.5q0 -210 -137 -328.5t-365 -118.5q-180 0 -311.5 89.5t-194.5 246.5z" />
<glyph unicode="4" horiz-adv-x="1335" d="M25 287v176l733 971h286v-891h175v-256h-175v-287h-270v287h-749zM385 543h389v526z" />
<glyph unicode="5" horiz-adv-x="1236" d="M117 113l149 217q143 -92 295 -92q125 0 200 64.5t75 178.5q0 99 -53.5 155t-149.5 56q-129 0 -219 -100l-256 121l37 721h827v-267h-571l-17 -260q103 47 211 47q113 0 203.5 -37.5t147 -103t86.5 -150.5t30 -182q0 -231 -154.5 -368.5t-396.5 -137.5q-273 0 -444 138z " />
<glyph unicode="6" horiz-adv-x="1257" d="M127 528q0 177 49 328t148.5 274.5t262.5 208.5t380 119v-262q-83 -13 -157.5 -39t-144.5 -68t-124 -106t-84 -145q93 71 235 71q205 0 337 -130.5t132 -338.5q0 -207 -143 -336t-369 -129q-126 0 -226 42t-164.5 117t-98 175.5t-33.5 218.5zM412 440q0 -95 66 -148.5 t171 -53.5q104 0 170 54t66 148q0 95 -66.5 151t-169.5 56q-104 0 -170.5 -56.5t-66.5 -150.5z" />
<glyph unicode="7" horiz-adv-x="1107" d="M45 1167v267h987v-244q-107 -121 -190.5 -284.5t-130 -326.5t-70 -310.5t-23.5 -268.5h-276q3 350 93 627t278 540h-668z" />
<glyph unicode="8" horiz-adv-x="1288" d="M127 432q0 121 63 210t175 142q-78 42 -129.5 116.5t-51.5 178.5q0 170 123.5 274.5t335.5 104.5t336.5 -104.5t124.5 -274.5q0 -101 -52.5 -176.5t-129.5 -116.5q110 -51 174.5 -143t64.5 -211q0 -206 -140.5 -331.5t-377.5 -125.5q-236 0 -376 125.5t-140 331.5z M403 436q0 -93 66.5 -152t173.5 -59q105 0 173.5 59.5t68.5 151.5q0 93 -68.5 153t-173.5 60q-107 0 -173.5 -59.5t-66.5 -153.5zM459 1061q0 -69 50 -113.5t134 -44.5q82 0 134 45t52 113q0 66 -51.5 108.5t-134.5 42.5q-85 0 -134.5 -42t-49.5 -109z" />
<glyph unicode="9" horiz-adv-x="1257" d="M96 997q0 209 143.5 335t374.5 126q131 0 231 -41.5t161.5 -117t92.5 -175t31 -221.5q0 -210 -48.5 -376.5t-145.5 -288.5t-250 -189.5t-356 -73.5v263q398 12 493 372q-93 -78 -243 -78q-215 0 -349.5 124.5t-134.5 340.5zM373 999q0 -98 63.5 -151t175.5 -53 q114 0 178 52.5t64 151.5q0 91 -65.5 146t-174.5 55q-112 0 -176.5 -55t-64.5 -146z" />
<glyph unicode=":" horiz-adv-x="493" d="M74 143q0 71 49.5 120.5t122.5 49.5t123.5 -49.5t50.5 -120.5q0 -72 -50 -120t-124 -48t-123 48t-49 120zM74 825q0 71 49.5 120.5t122.5 49.5t123.5 -49.5t50.5 -120.5q0 -72 -50 -120t-124 -48t-123 48t-49 120z" />
<glyph unicode=";" horiz-adv-x="493" d="M66 -205q37 32 77.5 84.5t55.5 104.5q-53 18 -85 58.5t-32 100.5q0 74 51 122t121 48q75 0 124.5 -52t49.5 -144q0 -122 -72 -231t-178 -175zM82 825q0 71 49.5 120.5t122.5 49.5t123.5 -49.5t50.5 -120.5q0 -72 -50 -120t-124 -48t-123 48t-49 120z" />
<glyph unicode="&#x3c;" horiz-adv-x="1290" d="M164 594v217l962 393v-278l-565 -224l565 -225v-276z" />
<glyph unicode="=" horiz-adv-x="1290" d="M164 346v258h962v-258h-962zM164 801v258h962v-258h-962z" />
<glyph unicode="&#x3e;" horiz-adv-x="1290" d="M164 201v278l565 223l-565 226v276l962 -393v-217z" />
<glyph unicode="?" horiz-adv-x="1034" d="M41 961q0 235 131 366t346 131q210 0 327.5 -116.5t117.5 -299.5q0 -69 -18 -125t-47.5 -93.5t-64.5 -70.5t-70 -62.5t-64.5 -61t-47.5 -75t-18 -95.5v-72h-266v74q0 77 18 140t47 104.5t64.5 76.5t70.5 63t64 55.5t47 63.5t18 78q0 71 -47 115.5t-131 44.5 q-102 0 -156.5 -62.5t-54.5 -178.5h-266zM330 143q0 71 49.5 120.5t122.5 49.5t123.5 -49.5t50.5 -120.5q0 -72 -50 -120t-124 -48t-123 48t-49 120z" />
<glyph unicode="@" horiz-adv-x="1714" d="M123 692q0 220 102.5 396t277.5 273t388 97q157 0 289.5 -48.5t221.5 -131.5t139 -195.5t50 -238.5q0 -225 -124.5 -372.5t-311.5 -147.5q-51 0 -100.5 27t-65.5 79q-62 -106 -203 -106q-131 0 -212.5 95.5t-81.5 254.5q0 105 45.5 201t134.5 159.5t200 63.5 q59 0 103 -23.5t65 -60.5l11 57h202l-67 -364q-27 -138 -27 -164q0 -35 35 -35q78 0 137.5 91.5t59.5 240.5q0 182 -125.5 299.5t-364.5 117.5q-251 0 -408 -159t-157 -408q0 -247 146 -380.5t399 -133.5q124 0 280 39l-59 -223q-136 -17 -230 -17q-224 0 -392 82.5 t-262.5 246t-94.5 388.5zM700 670q0 -66 30 -106t81 -40q78 0 127 71.5t49 158.5q0 67 -28.5 105t-81.5 38q-78 0 -127.5 -66t-49.5 -161z" />
<glyph unicode="A" horiz-adv-x="1499" d="M66 0l548 1434h271l549 -1434h-297l-111 297h-553l-111 -297h-296zM563 549h373l-141 373q-35 94 -45 129q-10 -35 -45 -129z" />
<glyph unicode="B" horiz-adv-x="1419" d="M164 0v1434h629q126 0 219 -32t145 -88t76 -122t24 -143q0 -97 -42.5 -174t-131.5 -119q113 -41 168.5 -133.5t55.5 -196.5q0 -80 -26.5 -153t-81.5 -135.5t-152 -100t-226 -37.5h-657zM440 258h396q100 0 145 50t45 118q0 186 -248 186h-338v-354zM440 870h320 q107 0 162 41.5t55 112.5q0 67 -38.5 109.5t-141.5 42.5h-357v-306z" />
<glyph unicode="C" horiz-adv-x="1310" d="M113 717q0 72 10 144t32 145.5t55 139t82 123t109.5 98.5t140.5 65t173 24q99 0 185.5 -27.5t149.5 -74t107 -102.5t70 -119l-248 -113q-58 88 -116.5 129t-147.5 41q-86 0 -150 -43.5t-98.5 -115t-51 -150.5t-16.5 -164q0 -86 19 -167.5t55.5 -151t99.5 -112t142 -42.5 q83 0 144.5 47.5t115.5 136.5l254 -96q-160 -355 -514 -355q-130 0 -234.5 43.5t-172 115t-112.5 168.5t-64 199.5t-19 213.5z" />
<glyph unicode="D" horiz-adv-x="1454" d="M164 0v1434h483q146 0 264.5 -40.5t197 -109t132 -161.5t77 -194.5t23.5 -211.5q0 -103 -22 -201t-74.5 -193t-130.5 -165.5t-200.5 -114t-274.5 -43.5h-475zM440 262h232q82 0 148 27.5t109 72t72 104.5t41.5 122.5t12.5 128.5q0 86 -21.5 165t-64 145t-113.5 105 t-162 39h-254v-909z" />
<glyph unicode="E" horiz-adv-x="1277" d="M164 0v1434h979v-263h-703v-301h414v-262h-414v-346h746v-262h-1022z" />
<glyph unicode="F" horiz-adv-x="1175" d="M164 0v1434h960v-263h-684v-301h434v-262h-434v-608h-276z" />
<glyph unicode="G" horiz-adv-x="1378" d="M113 717q0 107 23.5 211t74.5 200t123 169.5t178 117t231 43.5q100 0 182.5 -24.5t144 -71t104 -95.5t83.5 -116l-243 -139q-118 180 -271 180q-94 0 -164 -44t-107.5 -116.5t-55 -151t-17.5 -163.5q0 -75 12 -142.5t38.5 -129t66 -106t97.5 -71t130 -26.5q104 0 177 68 t73 163v16h-243v263h526v-211q0 -134 -41 -242.5t-113 -178.5t-168.5 -107.5t-210.5 -37.5q-129 0 -235 41.5t-178 111.5t-122 166t-72.5 202t-22.5 221z" />
<glyph unicode="H" horiz-adv-x="1480" d="M164 0v1434h276v-566h600v566h277v-1434h-277v606h-600v-606h-276z" />
<glyph unicode="I" horiz-adv-x="624" d="M174 0v1434h277v-1434h-277z" />
<glyph unicode="J" horiz-adv-x="1157" d="M31 291l241 112q85 -161 240 -161q45 0 81 12t67.5 41.5t49 87t17.5 139.5v912h277v-936q0 -118 -30.5 -211t-79 -150.5t-114.5 -95t-131.5 -52t-136.5 -14.5q-155 0 -284 83.5t-197 232.5z" />
<glyph unicode="K" horiz-adv-x="1460" d="M164 0v1434h276v-684l543 684h328l-418 -514l506 -920h-324l-368 686l-267 -328v-358h-276z" />
<glyph unicode="L" horiz-adv-x="1142" d="M164 0v1434h276v-1168h693v-266h-969z" />
<glyph unicode="M" horiz-adv-x="1656" d="M164 0v1434h280l353 -791q22 -53 37 -98q18 55 36 98l359 791h264v-1434h-276v737q0 47 4 113q-20 -60 -43 -113l-349 -762l-350 762q-23 53 -43 113q4 -66 4 -113v-737h-276z" />
<glyph unicode="N" horiz-adv-x="1470" d="M164 0v1434h260l555 -826q42 -71 59 -108q-6 49 -6 108v826h275v-1434h-246l-569 836q-37 58 -60 108q6 -53 6 -108v-836h-274z" />
<glyph unicode="O" horiz-adv-x="1488" d="M113 717q0 110 20.5 213t69 200.5t119.5 169t180 115t243 43.5t243 -43.5t180 -115t119 -169t68.5 -200.5t20.5 -213t-20.5 -213t-68.5 -200.5t-119 -169.5t-180 -115.5t-243 -43.5t-243 43.5t-180 115.5t-119.5 169t-69 200.5t-20.5 213.5zM399 717q0 -87 18.5 -167 t57 -151t108.5 -114t162 -43q91 0 160.5 44.5t108 116.5t57.5 151.5t19 162.5q0 69 -11 134t-36.5 127.5t-64 109.5t-98.5 75.5t-135 28.5t-135.5 -30t-99 -77.5t-64.5 -111t-36.5 -127.5t-10.5 -129z" />
<glyph unicode="P" horiz-adv-x="1308" d="M164 0v1434h614q105 0 189.5 -26t139.5 -69t92 -102.5t53 -122.5t16 -133q0 -65 -17 -127.5t-55 -122t-93.5 -104.5t-139.5 -72t-185 -27h-338v-528h-276zM440 791h351q96 0 143 56.5t47 133.5q0 33 -9.5 64.5t-30 61t-59.5 47t-91 17.5h-351v-380z" />
<glyph unicode="Q" horiz-adv-x="1488" d="M113 717q0 110 20.5 213t69 200.5t119.5 169t180 115t243 43.5t243 -43.5t180 -115t119 -169t68.5 -200.5t20.5 -213q0 -171 -52 -325t-157 -259l95 -139l-205 -135l-101 147q-109 -31 -211 -31q-134 0 -243 43.5t-180 115.5t-119.5 169t-69 200.5t-20.5 213.5zM399 717 q0 -87 18.5 -167t57 -151t108.5 -114t162 -43q26 0 50 6l-105 155l209 136l102 -156q45 64 67 154.5t22 179.5q0 69 -11 134t-36.5 127.5t-64 109.5t-98.5 75.5t-135 28.5t-135.5 -30t-99 -77.5t-64.5 -111t-36.5 -127.5t-10.5 -129z" />
<glyph unicode="R" horiz-adv-x="1421" d="M164 0v1434h665q105 0 188 -24.5t137 -65.5t89.5 -99t50.5 -122t15 -138q0 -131 -73.5 -249t-205.5 -165l279 -571h-312l-268 535h-289v-535h-276zM440 797h394q98 0 143 53t45 135q0 79 -43.5 132.5t-144.5 53.5h-394v-374z" />
<glyph unicode="S" horiz-adv-x="1259" d="M82 369l252 94q47 -103 129 -164t184 -61q107 0 169.5 45t62.5 129q0 29 -9.5 54t-32.5 45.5t-44 35t-61.5 31t-67 26t-76.5 25.5h-1l-1 1h-1h-1q-177 59 -254 105q-179 106 -192 297q-1 15 -1 31q0 168 131 281.5t355 113.5q185 0 310 -92.5t167 -239.5l-248 -82 q-69 152 -246 152q-91 0 -140.5 -35.5t-49.5 -101.5q0 -26 15 -49t34 -38t60.5 -33t67.5 -27.5t83 -28.5h1q182 -62 265 -110q205 -121 215 -339v-22q0 -102 -40 -185.5t-110 -138t-164.5 -84t-203.5 -29.5q-201 0 -348 105t-209 289z" />
<glyph unicode="T" horiz-adv-x="1239" d="M72 1167v267h1095v-267h-409v-1167h-277v1167h-409z" />
<glyph unicode="U" horiz-adv-x="1462" d="M154 549v885h276v-885q0 -170 75.5 -238.5t225.5 -68.5q148 0 224.5 69t76.5 238v885h277v-885q0 -124 -31.5 -223t-85.5 -163.5t-129 -107.5t-157 -61.5t-175 -18.5q-91 0 -172 18t-156.5 60.5t-129.5 106.5t-86.5 163.5t-32.5 225.5z" />
<glyph unicode="V" horiz-adv-x="1402" d="M61 1434h299l316 -938q17 -54 29 -99q7 37 26 99l316 938h294l-505 -1434h-267z" />
<glyph unicode="W" horiz-adv-x="1744" d="M72 1434h284l160 -807q12 -57 19 -107q9 63 20 109l197 805h239l201 -805q11 -46 20 -109q7 50 19 107l160 807h282l-309 -1434h-258l-217 844q-16 61 -21 108q-6 -55 -20 -106l-211 -846h-258z" />
<glyph unicode="X" horiz-adv-x="1417" d="M82 0l465 739l-436 695h323l275 -439l274 439h324l-437 -695l465 -739h-323l-303 481l-303 -481h-324z" />
<glyph unicode="Y" horiz-adv-x="1417" d="M41 1434h313l355 -586l354 586h313l-530 -875v-559h-275v559z" />
<glyph unicode="Z" horiz-adv-x="1320" d="M92 0v211l750 960h-705v263h1071v-211l-755 -961h755v-262h-1116z" />
<glyph unicode="[" horiz-adv-x="798" d="M205 -266v1724h512v-256h-246v-1212h246v-256h-512z" />
<glyph unicode="\" horiz-adv-x="1069" d="M-31 1458h275l805 -1724h-275z" />
<glyph unicode="]" horiz-adv-x="798" d="M82 -10h244v1212h-244v256h512v-1724h-512v256z" />
<glyph unicode="^" horiz-adv-x="1290" d="M119 696l426 762h200l426 -762h-276l-250 416l-250 -416h-276z" />
<glyph unicode="_" horiz-adv-x="1024" d="M-10 -158h1044v-204h-1044v204z" />
<glyph unicode="`" d="M141 1499h332l291 -319h-258z" />
<glyph unicode="a" horiz-adv-x="1142" d="M92 322q0 87 35.5 155.5t95.5 109t132.5 61t152.5 20.5q138 0 240 -50v54q0 166 -189 166q-172 0 -323 -105l-82 215q181 123 428 123q65 0 118 -7.5t113 -32.5t101 -67t68.5 -118t27.5 -178v-668h-262v76q-101 -101 -271 -101t-277.5 90.5t-107.5 256.5zM352 322 q0 -52 45.5 -82.5t130.5 -30.5q127 0 220 86v113q-81 34 -195 34q-90 0 -145.5 -29.5t-55.5 -90.5z" />
<glyph unicode="b" horiz-adv-x="1179" d="M154 0v1358l266 121v-508q80 100 223 100q191 0 312.5 -149t121.5 -398q0 -262 -118.5 -405.5t-325.5 -143.5q-141 0 -213 101v-76h-266zM420 315q60 -84 182 -84q101 0 155 78t54 215q0 140 -54.5 215.5t-154.5 75.5q-63 0 -110 -25t-72 -61v-414z" />
<glyph unicode="c" horiz-adv-x="1120" d="M102 522q0 254 130 401.5t348 147.5q338 0 436 -307l-254 -84q-24 62 -69.5 98.5t-106.5 36.5q-97 0 -155 -80.5t-58 -212.5q0 -133 57 -212t150 -79q136 0 184 152l254 -76q-95 -332 -438 -332q-219 0 -348.5 145.5t-129.5 401.5z" />
<glyph unicode="d" horiz-adv-x="1179" d="M102 524q0 249 122 398t313 149q143 0 223 -100v387l266 121v-1479h-266v76q-69 -101 -225 -101q-200 0 -316.5 143.5t-116.5 405.5zM369 524q0 -137 54 -215t155 -78q122 0 182 84v414q-26 35 -72.5 60.5t-109.5 25.5q-100 0 -154.5 -75.5t-54.5 -215.5z" />
<glyph unicode="e" horiz-adv-x="1146" d="M102 524q0 253 132.5 400t357.5 147q204 0 333.5 -126t129.5 -367q0 -101 -8 -158h-682q7 -98 72 -154.5t155 -56.5q141 0 225 108l164 -165q-147 -177 -389 -177q-228 0 -359 146t-131 403zM367 645h428q-12 91 -67 142t-136 51q-96 0 -154.5 -48.5t-70.5 -144.5z" />
<glyph unicode="f" horiz-adv-x="739" d="M72 813v234h145v159q0 252 258 252q135 0 234 -51v-217q-88 35 -150 35q-76 0 -76 -72v-106h226v-234h-226v-813h-266v813h-145z" />
<glyph unicode="g" horiz-adv-x="1179" d="M102 524q0 251 120.5 399t314.5 148q140 0 223 -80v56h266v-906q0 -112 -13.5 -193t-46.5 -147t-89.5 -108t-141 -68t-203.5 -35l-147 222q218 18 296.5 61t78.5 154v28q-80 -80 -225 -80q-195 0 -314 142t-119 407zM369 524q0 -134 53 -213.5t156 -79.5q119 0 182 84 v414q-32 38 -73.5 62t-108.5 24q-100 0 -154.5 -75.5t-54.5 -215.5z" />
<glyph unicode="h" horiz-adv-x="1210" d="M154 0v1356l266 123v-531q101 123 280 123q72 0 134 -21t116 -66.5t85.5 -128.5t31.5 -196v-659h-266v584q0 120 -45.5 175.5t-137.5 55.5q-198 0 -198 -227v-588h-266z" />
<glyph unicode="i" horiz-adv-x="577" d="M133 1325q0 64 45.5 109t110.5 45q66 0 110.5 -44.5t44.5 -109.5t-44.5 -110.5t-110.5 -45.5q-65 0 -110.5 45.5t-45.5 110.5zM156 0v1047h266v-1047h-266z" />
<glyph unicode="j" horiz-adv-x="577" d="M-137 -227q165 37 229 84t64 135v1055h266v-990q0 -105 -22 -187t-81 -144q-66 -70 -145.5 -106t-175.5 -58zM133 1325q0 64 45.5 109t110.5 45q66 0 110.5 -44.5t44.5 -109.5t-44.5 -110.5t-110.5 -45.5q-65 0 -110.5 45.5t-45.5 110.5z" />
<glyph unicode="k" horiz-adv-x="1159" d="M154 0v1354l266 125v-717l280 285h320l-307 -304l385 -743h-291l-289 553l-98 -94v-459h-266z" />
<glyph unicode="l" horiz-adv-x="593" d="M164 0v1354l266 125v-1479h-266z" />
<glyph unicode="m" horiz-adv-x="1792" d="M154 0v1047h266v-97q93 121 248 121q193 0 268 -147q105 147 321 147q392 0 392 -414v-657h-267v571q0 130 -38 187t-127 57q-94 0 -138.5 -57.5t-44.5 -184.5v-573h-266v571q0 130 -38.5 187t-127.5 57q-93 0 -137.5 -58t-44.5 -184v-573h-266z" />
<glyph unicode="n" horiz-adv-x="1210" d="M154 0v1047h266v-99q101 123 280 123q72 0 134 -21t116 -66.5t85.5 -128.5t31.5 -196v-659h-266v573q0 126 -45 184t-138 58q-99 0 -148.5 -57.5t-49.5 -179.5v-578h-266z" />
<glyph unicode="o" horiz-adv-x="1167" d="M102 522q0 254 130 401.5t352 147.5t351.5 -147.5t129.5 -401.5q0 -256 -129 -401.5t-352 -145.5t-352.5 145.5t-129.5 401.5zM369 522q0 -136 58 -213.5t157 -77.5q101 0 158 77t57 214t-57 215t-158 78q-99 0 -157 -78.5t-58 -214.5z" />
<glyph unicode="p" horiz-adv-x="1179" d="M154 -410v1457h266v-76q80 100 225 100q197 0 314.5 -144t117.5 -405q0 -253 -121 -400t-313 -147q-143 0 -223 101v-365zM420 317q23 -36 70.5 -61t111.5 -25q100 0 154.5 76t54.5 215q0 135 -54 214t-155 79q-118 0 -182 -84v-414z" />
<glyph unicode="q" horiz-adv-x="1179" d="M102 522q0 260 122 404.5t323 144.5q142 0 213 -100v76h266v-1336l-266 -121v486q-80 -101 -223 -101q-192 0 -313.5 147t-121.5 400zM369 522q0 -139 54.5 -215t154.5 -76q64 0 111.5 25t70.5 61v414q-64 84 -182 84q-101 0 -155 -79t-54 -214z" />
<glyph unicode="r" horiz-adv-x="878" d="M154 0v1047h266v-93q55 117 194 117q117 0 213 -80l-36 -243q-85 61 -191 61q-180 0 -180 -225v-584h-266z" />
<glyph unicode="s" horiz-adv-x="1011" d="M82 164l176 149q43 -43 107.5 -77.5t138.5 -34.5q158 0 158 92q0 43 -42.5 70.5t-148.5 68.5q-93 31 -155.5 61.5t-110 71t-70 92.5t-22.5 119q0 138 109 216.5t272 78.5q238 0 383 -168l-179 -145q-94 88 -204 88q-61 0 -97.5 -20.5t-36.5 -57.5q0 -38 54.5 -68 t150.5 -59q61 -20 106 -39t92.5 -49t77 -64.5t49 -84.5t19.5 -111q0 -152 -110 -235t-299 -83q-128 0 -242.5 51.5t-175.5 137.5z" />
<glyph unicode="t" horiz-adv-x="804" d="M61 813v234h150v305l266 127v-432h234v-234h-234v-522q0 -38 19.5 -60t54.5 -22q86 0 172 45l-31 -231q-98 -48 -227 -48q-254 0 -254 277v561h-150z" />
<glyph unicode="u" horiz-adv-x="1210" d="M143 387v660h267v-574q0 -126 44 -184t138 -58q199 0 199 238v578h266v-1047h-266v98q-97 -123 -281 -123q-56 0 -107 12.5t-99 43t-83 76.5t-56.5 118t-21.5 162z" />
<glyph unicode="v" horiz-adv-x="1144" d="M51 1047h275l219 -621q19 -59 28 -96q6 25 29 96l217 621h275l-383 -1047h-277z" />
<glyph unicode="w" horiz-adv-x="1538" d="M72 1047h262l123 -510q6 -22 15 -74t11 -64q18 86 31 138l133 510h242l131 -510q13 -53 31 -138q2 12 11 64t15 74l127 510h262l-295 -1047h-235l-133 522q-2 9 -10.5 43t-15 63.5t-9.5 49.5q-3 -20 -9.5 -49.5t-15 -63.5t-10.5 -43l-133 -522h-235z" />
<glyph unicode="x" horiz-adv-x="1210" d="M72 0l379 543l-353 504h310l137 -199q50 -72 59 -96q26 50 60 96l139 199h309l-352 -504l379 -543h-310l-165 236q-34 46 -60 96q-9 -24 -59 -96l-164 -236h-309z" />
<glyph unicode="y" horiz-adv-x="1167" d="M51 1047h273l229 -605q21 -53 31 -96q3 12 30 96l230 605h272l-555 -1444h-276l159 411z" />
<glyph unicode="z" horiz-adv-x="1114" d="M113 0v209l540 600h-501v238h839v-203l-538 -606h536v-238h-876z" />
<glyph unicode="{" horiz-adv-x="778" d="M82 475v242h61q40 0 61 34.5t21 92.5v133q0 230 125.5 351.5t345.5 129.5v-244q-204 -12 -204 -202v-148q0 -214 -142 -268q67 -25 104.5 -94t37.5 -176v-148q0 -194 204 -203v-241q-219 5 -345 127t-126 352v135q0 59 -21 93t-61 34h-61z" />
<glyph unicode="|" horiz-adv-x="614" d="M174 -420v2069h266v-2069h-266z" />
<glyph unicode="}" horiz-adv-x="778" d="M82 -25q102 4 153.5 56t51.5 147v148q0 107 37 176t104 94q-141 54 -141 268v148q0 190 -205 202v244q220 -8 345.5 -129.5t125.5 -351.5v-133q0 -56 22 -91.5t60 -35.5h61v-242h-61q-38 0 -60 -34.5t-22 -92.5v-135q0 -230 -126 -352t-345 -127v241z" />
<glyph unicode="~" horiz-adv-x="1290" d="M160 518q0 76 17 141t50.5 117.5t91 82.5t132.5 30q59 0 116.5 -17.5t94 -38t81 -38t80.5 -17.5q85 0 95 111h210q0 -76 -16 -140.5t-49 -117.5t-90.5 -83t-134.5 -30q-75 0 -146.5 28t-129 55.5t-97.5 27.5q-80 0 -94 -111h-211z" />
<glyph unicode="&#xa2;" horiz-adv-x="1120" d="M102 717q0 206 86.5 345t239.5 183v213h256v-201q251 -42 332 -299l-254 -84q-24 62 -69.5 99t-106.5 37q-97 0 -155 -79t-58 -214q0 -133 57 -212t150 -79q136 0 184 152l254 -76q-36 -135 -122 -216.5t-212 -105.5v-205h-256v218q-156 45 -241 180t-85 344z" />
<glyph unicode="&#xa3;" horiz-adv-x="1228" d="M154 551v246h110q-53 116 -53 235q0 82 29.5 156.5t86.5 136t153 97.5t218 36q140 0 246.5 -36.5t214.5 -114.5l-104 -254q-40 32 -65 49.5t-72.5 43.5t-102.5 39t-117 13q-108 0 -160.5 -47.5t-52.5 -116.5q0 -38 16 -85t60 -152h348v-246h-309q0 -15 -4 -47 q-19 -138 -96 -244h667v-260h-1005v254q127 57 160 250q4 32 4 47h-172z" />
<glyph unicode="&#xa5;" horiz-adv-x="1245" d="M31 1434h307l285 -510l280 510h311l-423 -729h241v-201h-276v-133h276v-201h-276v-170h-267v170h-276v201h276v133h-276v201h240z" />
<glyph unicode="&#xa8;" d="M141 1339q0 63 43 106.5t107 43.5q63 0 106 -43.5t43 -106.5q0 -64 -43 -106.5t-106 -42.5q-65 0 -107.5 42.5t-42.5 106.5zM530 1339q0 63 43 106.5t107 43.5q63 0 106 -43.5t43 -106.5q0 -64 -43 -106.5t-106 -42.5q-65 0 -107.5 42.5t-42.5 106.5z" />
<glyph unicode="&#xa9;" horiz-adv-x="1728" d="M123 717q0 155 57 292.5t155.5 236t236 155.5t292.5 57t292.5 -57t236 -155.5t156 -236t57.5 -292.5t-57.5 -292.5t-156 -236t-236 -156t-292.5 -57.5t-292.5 57.5t-236 156t-155.5 236t-57 292.5zM311 717q0 -243 156.5 -404t396.5 -161t396.5 161t156.5 404t-156.5 404 t-396.5 161t-396.5 -161t-156.5 -404zM500 717q0 63 12 124t40 120t69.5 103t105.5 71.5t143 27.5q111 0 189.5 -51t120.5 -139l-187 -88q-47 78 -123 78q-42 0 -73.5 -23t-48.5 -60.5t-25 -78.5t-8 -84q0 -96 40.5 -171t114.5 -75q78 0 123 78l189 -66q-97 -213 -312 -213 q-81 0 -146 26t-106 68.5t-68.5 101.5t-38.5 121t-11 130z" />
<glyph unicode="&#xab;" horiz-adv-x="1150" d="M61 524l312 523h286l-311 -523l311 -524h-286zM522 524l312 523h286l-311 -523l311 -524h-286z" />
<glyph unicode="&#xad;" horiz-adv-x="843" d="M154 477v256h536v-256h-536z" />
<glyph unicode="&#xae;" horiz-adv-x="1728" d="M123 717q0 155 57 292.5t155.5 236t236 155.5t292.5 57t292.5 -57t236 -155.5t156 -236t57.5 -292.5t-57.5 -292.5t-156 -236t-236 -156t-292.5 -57.5t-292.5 57.5t-236 156t-155.5 236t-57 292.5zM311 717q0 -243 156.5 -404t396.5 -161t396.5 161t156.5 404t-156.5 404 t-396.5 161t-396.5 -161t-156.5 -404zM571 285v864h340q80 0 138 -22.5t89 -62.5t44.5 -85.5t13.5 -99.5q0 -79 -44 -147t-130 -99l170 -348h-234l-153 323h-33v-323h-201zM772 799h139q42 0 63 24t21 56q0 31 -19.5 55t-64.5 24h-139v-159z" />
<glyph unicode="&#xb4;" d="M209 1180l291 319h331l-364 -319h-258z" />
<glyph unicode="&#xb8;" d="M233 -403l115 86q27 -39 84 -39q47 0 72.5 21.5t25.5 58.5t-26.5 58t-73.5 21q-46 0 -88 -28l-55 67l147 178h144l-72 -114q115 0 173 -51t58 -134q0 -99 -73.5 -160t-204.5 -61q-154 0 -226 97z" />
<glyph unicode="&#xbb;" horiz-adv-x="1150" d="M31 0l311 524l-311 523h286l312 -523l-312 -524h-286zM492 0l311 524l-311 523h286l312 -523l-312 -524h-286z" />
<glyph unicode="&#x2c6;" d="M68 1180l290 319h256l289 -319h-246l-172 141l-172 -141h-245z" />
<glyph unicode="&#x2da;" d="M219 1339q0 110 77.5 186.5t188.5 76.5t189 -76.5t78 -186.5q0 -109 -78.5 -186.5t-188.5 -77.5t-188 77.5t-78 186.5zM406 1339q0 -36 22 -59t57 -23q32 0 56 24t24 58t-24 58t-56 24q-35 0 -57 -23t-22 -59z" />
<glyph unicode="&#x2dc;" d="M88 1202q0 283 236 283q62 0 125 -23.5t117 -47t96 -23.5q93 0 96 86h125q0 -131 -56 -207t-180 -76q-62 0 -125 23.5t-117.5 47t-95.5 23.5q-93 0 -96 -86h-125z" />
<glyph unicode="&#x2000;" horiz-adv-x="824" />
<glyph unicode="&#x2001;" horiz-adv-x="1649" />
<glyph unicode="&#x2002;" horiz-adv-x="824" />
<glyph unicode="&#x2003;" horiz-adv-x="1649" />
<glyph unicode="&#x2004;" horiz-adv-x="549" />
<glyph unicode="&#x2005;" horiz-adv-x="412" />
<glyph unicode="&#x2006;" horiz-adv-x="274" />
<glyph unicode="&#x2007;" horiz-adv-x="274" />
<glyph unicode="&#x2008;" horiz-adv-x="206" />
<glyph unicode="&#x2009;" horiz-adv-x="329" />
<glyph unicode="&#x200a;" horiz-adv-x="91" />
<glyph unicode="&#x2010;" horiz-adv-x="843" d="M154 477v256h536v-256h-536z" />
<glyph unicode="&#x2011;" horiz-adv-x="843" d="M154 477v256h536v-256h-536z" />
<glyph unicode="&#x2012;" horiz-adv-x="843" d="M154 477v256h536v-256h-536z" />
<glyph unicode="&#x2013;" horiz-adv-x="1013" d="M102 471v234h809v-234h-809z" />
<glyph unicode="&#x2014;" horiz-adv-x="1177" d="M-10 471v234h1198v-234h-1198z" />
<glyph unicode="&#x2018;" horiz-adv-x="505" d="M72 1053q0 117 71.5 225.5t178.5 179.5l112 -84q-32 -28 -75.5 -86.5t-57.5 -101.5q53 -18 85 -59t32 -101q0 -74 -51 -122t-121 -48q-74 0 -124 53t-50 144z" />
<glyph unicode="&#x2019;" horiz-adv-x="505" d="M72 940q33 29 75 86t58 102q-53 18 -85 59t-32 101q0 74 51 122t121 48q75 0 124.5 -52t49.5 -144q0 -114 -73.5 -227.5t-176.5 -178.5z" />
<glyph unicode="&#x201a;" horiz-adv-x="505" d="M72 -205q33 29 75 86.5t58 102.5q-53 18 -85 58.5t-32 100.5q0 74 51 122t121 48q75 0 124.5 -52t49.5 -144q0 -114 -73.5 -227.5t-176.5 -178.5z" />
<glyph unicode="&#x201c;" horiz-adv-x="995" d="M72 1053q0 117 71.5 225.5t178.5 179.5l112 -84q-32 -28 -75.5 -86.5t-57.5 -101.5q53 -18 85 -59t32 -101q0 -74 -51 -122t-121 -48q-74 0 -124 53t-50 144zM561 1053q0 115 72.5 225.5t177.5 179.5l113 -84q-33 -29 -75 -86t-58 -102q52 -18 84 -59t32 -101 q0 -74 -51 -122t-121 -48q-75 0 -124.5 53t-49.5 144z" />
<glyph unicode="&#x201d;" horiz-adv-x="995" d="M72 940q33 29 75 86t58 102q-53 18 -85 59t-32 101q0 74 51 122t121 48q75 0 124.5 -52t49.5 -144q0 -114 -73.5 -227.5t-176.5 -178.5zM561 940q33 29 75 86t58 102q-52 18 -84 59t-32 101q0 74 51 122t121 48q76 0 125 -52t49 -144q0 -115 -73 -229.5t-177 -176.5z" />
<glyph unicode="&#x201e;" horiz-adv-x="995" d="M72 -205q33 29 75 86.5t58 102.5q-53 18 -85 58.5t-32 100.5q0 74 51 122t121 48q75 0 124.5 -52t49.5 -144q0 -114 -73.5 -227.5t-176.5 -178.5zM561 -205q33 29 75 86.5t58 102.5q-53 18 -84.5 58.5t-31.5 100.5q0 74 51 122t121 48q76 0 125 -52t49 -144 q0 -115 -73 -229.5t-177 -176.5z" />
<glyph unicode="&#x2022;" horiz-adv-x="862" d="M123 717q0 124 88.5 211.5t216.5 87.5q129 0 220 -88t91 -211t-91 -210t-220 -87q-128 0 -216.5 86.5t-88.5 210.5z" />
<glyph unicode="&#x2026;" horiz-adv-x="2144" d="M184 143q0 71 49.5 120.5t122.5 49.5t123.5 -49.5t50.5 -120.5q0 -72 -50 -120t-124 -48t-123 48t-49 120zM899 143q0 71 49.5 120.5t122.5 49.5t123.5 -49.5t50.5 -120.5q0 -72 -50 -120t-124 -48t-123 48t-49 120zM1614 143q0 71 49.5 120.5t122.5 49.5t123.5 -49.5 t50.5 -120.5q0 -72 -50 -120t-124 -48t-123 48t-49 120z" />
<glyph unicode="&#x202f;" horiz-adv-x="329" />
<glyph unicode="&#x2039;" horiz-adv-x="690" d="M61 524l312 523h286l-311 -523l311 -524h-286z" />
<glyph unicode="&#x203a;" horiz-adv-x="690" d="M31 0l311 524l-311 523h286l312 -523l-312 -524h-286z" />
<glyph unicode="&#x205f;" horiz-adv-x="412" />
<glyph unicode="&#x20ac;" horiz-adv-x="1308" d="M80 444l86 197h80q-2 27 -2 68q0 26 2 55h-166l86 199h106q21 105 61.5 191.5t103.5 156t156 108.5t208 39q201 0 391 -137l-98 -242q-68 59 -136 91t-157 32q-95 0 -157 -63.5t-91 -173.5h496l-82 -201h-445q-2 -27 -2 -47q0 -53 2 -76h398l-82 -201h-281 q24 -100 81 -154.5t142 -54.5q134 0 234 146l213 -131q-75 -126 -189.5 -198.5t-257.5 -72.5q-221 0 -345 126t-163 343h-192z" />
<glyph unicode="&#x2122;" horiz-adv-x="1730" d="M41 1251v183h631v-183h-215v-682h-199v682h-217zM723 569v865h242l172 -398l18 -51l19 51l172 398h241v-865h-198v531l-19 -56l-213 -491l-215 491l-20 62v-537h-199z" />
<glyph unicode="&#x25fc;" horiz-adv-x="1044" d="M0 0v1044h1044v-1044h-1044z" />
</font>
</defs>
</svg>
